<?xml version="1.0" encoding="UTF-8" standalone="no"?>
<!DOCTYPE svg PUBLIC "-//W3C//DTD SVG 1.1//EN" "http://www.w3.org/Graphics/SVG/1.1/DTD/svg11.dtd">
<svg width="100%" height="100%" viewBox="0 0 41 41" version="1.1" xmlns="http://www.w3.org/2000/svg" xmlns:xlink="http://www.w3.org/1999/xlink" xml:space="preserve" xmlns:serif="http://www.serif.com/" style="fill-rule:evenodd;clip-rule:evenodd;stroke-linejoin:round;stroke-miterlimit:2;">
    <g transform="matrix(1,0,0,1,0.399,0.177)">
        <path d="M20.101,40.323C31.147,40.323 40.101,31.369 40.101,20.323C40.101,9.278 31.147,0.323 20.101,0.323C9.056,0.323 0.101,9.278 0.101,20.323C0.101,31.369 9.056,40.323 20.101,40.323ZM23.188,15.776C24.893,14.071 24.893,11.307 23.188,9.602C21.484,7.897 18.719,7.897 17.015,9.602C15.31,11.307 15.31,14.071 17.015,15.776L20.101,18.863L23.188,15.776ZM24.649,23.41C26.354,25.115 29.118,25.115 30.823,23.41C32.528,21.705 32.528,18.941 30.823,17.236C29.118,15.532 26.354,15.532 24.649,17.236L21.562,20.323L24.649,23.41ZM23.188,31.045C24.893,29.34 24.893,26.576 23.188,24.871L20.101,21.784L17.015,24.871C15.31,26.576 15.31,29.34 17.015,31.045C18.719,32.749 21.484,32.749 23.188,31.045ZM9.38,23.41C7.675,21.705 7.675,18.941 9.38,17.236C11.085,15.532 13.849,15.532 15.554,17.236L18.641,20.323L15.554,23.41C13.849,25.115 11.085,25.115 9.38,23.41Z" style="fill:rgb(167,103,51);"/>
    </g>
</svg>
