<?xml version="1.0" encoding="UTF-8" standalone="no"?>
<!DOCTYPE svg PUBLIC "-//W3C//DTD SVG 1.1//EN" "http://www.w3.org/Graphics/SVG/1.1/DTD/svg11.dtd">
<svg width="100%" height="100%" viewBox="0 0 160 41" version="1.1" xmlns="http://www.w3.org/2000/svg" xmlns:xlink="http://www.w3.org/1999/xlink" xml:space="preserve" xmlns:serif="http://www.serif.com/" style="fill-rule:evenodd;clip-rule:evenodd;stroke-linejoin:round;stroke-miterlimit:2;">
    <path d="M20.101,40.323C31.147,40.323 40.101,31.369 40.101,20.323C40.101,9.278 31.147,0.323 20.101,0.323C9.056,0.323 0.101,9.278 0.101,20.323C0.101,31.369 9.056,40.323 20.101,40.323ZM23.188,15.776C24.893,14.071 24.893,11.307 23.188,9.602C21.484,7.897 18.719,7.897 17.015,9.602C15.31,11.307 15.31,14.071 17.015,15.776L20.101,18.863L23.188,15.776ZM24.649,23.41C26.354,25.115 29.118,25.115 30.823,23.41C32.528,21.705 32.528,18.941 30.823,17.236C29.118,15.532 26.354,15.532 24.649,17.236L21.562,20.323L24.649,23.41ZM23.188,31.045C24.893,29.34 24.893,26.576 23.188,24.871L20.101,21.784L17.015,24.871C15.31,26.576 15.31,29.34 17.015,31.045C18.719,32.749 21.484,32.749 23.188,31.045ZM9.38,23.41C7.675,21.705 7.675,18.941 9.38,17.236C11.085,15.532 13.849,15.532 15.554,17.236L18.641,20.323L15.554,23.41C13.849,25.115 11.085,25.115 9.38,23.41Z" style="fill:rgb(167,103,51);"/>
    <g transform="matrix(5.43954,0,0,5.41484,-240.211,-5.17682)">
        <path d="M54.926,6.67C54.899,6.681 54.858,6.693 54.803,6.707C54.749,6.72 54.689,6.727 54.623,6.727C54.389,6.727 54.271,6.629 54.271,6.433L54.271,3.658C54.271,3.533 54.295,3.433 54.341,3.36C54.387,3.286 54.465,3.214 54.574,3.143C54.716,3.05 54.908,2.969 55.151,2.901C55.394,2.833 55.668,2.799 55.974,2.799C56.41,2.799 56.628,2.908 56.628,3.126C56.628,3.181 56.62,3.231 56.604,3.278C56.587,3.324 56.565,3.364 56.538,3.396C56.484,3.385 56.413,3.375 56.325,3.364C56.238,3.353 56.151,3.347 56.064,3.347C55.813,3.347 55.592,3.373 55.401,3.425C55.21,3.477 55.052,3.538 54.926,3.609L54.926,6.67Z" style="fill:rgb(60,60,67);fill-rule:nonzero;"/>
        <path d="M57.782,5.18C57.929,5.895 58.399,6.252 59.19,6.252C59.419,6.252 59.626,6.214 59.812,6.138C59.997,6.062 60.144,5.98 60.254,5.892C60.385,5.969 60.45,6.072 60.45,6.203C60.45,6.28 60.416,6.353 60.348,6.424C60.279,6.495 60.187,6.558 60.069,6.613C59.952,6.667 59.816,6.711 59.66,6.743C59.505,6.776 59.337,6.793 59.157,6.793C58.524,6.793 58.024,6.621 57.655,6.277C57.287,5.933 57.103,5.431 57.103,4.771C57.103,4.46 57.148,4.183 57.238,3.941C57.328,3.698 57.453,3.492 57.614,3.323C57.775,3.154 57.968,3.024 58.191,2.934C58.415,2.844 58.658,2.799 58.92,2.799C59.165,2.799 59.392,2.84 59.599,2.922C59.806,3.004 59.985,3.119 60.135,3.27C60.285,3.42 60.402,3.597 60.487,3.801C60.571,4.006 60.614,4.231 60.614,4.477C60.614,4.597 60.586,4.683 60.532,4.734C60.477,4.786 60.401,4.818 60.303,4.829L57.782,5.18ZM58.911,3.331C58.579,3.331 58.303,3.447 58.085,3.679C57.867,3.911 57.752,4.242 57.741,4.673L59.992,4.362C59.964,4.062 59.859,3.815 59.677,3.621C59.494,3.428 59.239,3.331 58.911,3.331Z" style="fill:rgb(60,60,67);fill-rule:nonzero;"/>
        <path d="M62.913,6.261C63.142,6.261 63.332,6.237 63.482,6.191C63.632,6.145 63.74,6.1 63.805,6.056L63.805,4.869L62.79,4.976C62.507,5.003 62.297,5.067 62.16,5.168C62.024,5.269 61.956,5.418 61.956,5.614C61.956,5.821 62.035,5.981 62.193,6.093C62.351,6.205 62.591,6.261 62.913,6.261ZM62.905,2.799C63.38,2.799 63.756,2.905 64.034,3.118C64.313,3.331 64.452,3.666 64.452,4.125L64.452,6.064C64.452,6.184 64.429,6.276 64.382,6.338C64.336,6.401 64.266,6.46 64.174,6.514C64.043,6.591 63.869,6.658 63.654,6.715C63.438,6.772 63.191,6.801 62.913,6.801C62.4,6.801 62.004,6.7 61.723,6.498C61.442,6.296 61.301,6.004 61.301,5.622C61.301,5.262 61.418,4.991 61.653,4.808C61.888,4.625 62.218,4.512 62.643,4.468L63.805,4.354L63.805,4.125C63.805,3.852 63.723,3.653 63.56,3.527C63.396,3.402 63.175,3.339 62.897,3.339C62.668,3.339 62.452,3.372 62.25,3.437C62.049,3.503 61.868,3.576 61.71,3.658C61.667,3.62 61.627,3.576 61.592,3.527C61.556,3.478 61.538,3.424 61.538,3.364C61.538,3.287 61.557,3.225 61.596,3.175C61.634,3.126 61.694,3.08 61.776,3.036C61.923,2.96 62.092,2.901 62.283,2.86C62.474,2.819 62.681,2.799 62.905,2.799Z" style="fill:rgb(60,60,67);fill-rule:nonzero;"/>
        <path d="M68.175,6.293C68.083,6.37 67.956,6.435 67.795,6.49C67.634,6.544 67.442,6.572 67.218,6.572C66.978,6.572 66.751,6.538 66.539,6.469C66.326,6.401 66.139,6.292 65.978,6.142C65.817,5.992 65.689,5.797 65.593,5.557C65.498,5.317 65.45,5.025 65.45,4.681C65.45,4.37 65.497,4.097 65.589,3.863C65.682,3.628 65.812,3.432 65.978,3.274C66.144,3.115 66.342,2.997 66.571,2.918C66.8,2.839 67.054,2.799 67.332,2.799C67.583,2.799 67.814,2.83 68.024,2.893C68.234,2.956 68.41,3.034 68.552,3.126C68.634,3.181 68.7,3.242 68.752,3.31C68.804,3.379 68.83,3.462 68.83,3.56L68.83,6.85C68.83,7.123 68.785,7.353 68.695,7.541C68.605,7.73 68.479,7.882 68.319,8C68.158,8.117 67.968,8.203 67.75,8.257C67.532,8.312 67.297,8.339 67.046,8.339C66.768,8.339 66.532,8.311 66.338,8.253C66.144,8.196 66.012,8.146 65.941,8.102C65.778,8.009 65.696,7.892 65.696,7.75C65.696,7.674 65.713,7.61 65.749,7.558C65.784,7.506 65.829,7.466 65.884,7.439C65.998,7.526 66.159,7.607 66.367,7.681C66.574,7.754 66.8,7.791 67.046,7.791C67.412,7.791 67.691,7.713 67.885,7.558C68.078,7.402 68.175,7.153 68.175,6.809L68.175,6.293ZM67.292,6.032C67.51,6.032 67.688,5.997 67.828,5.929C67.967,5.861 68.083,5.783 68.175,5.696L68.175,3.568C68.083,3.508 67.967,3.455 67.828,3.409C67.688,3.362 67.523,3.339 67.332,3.339C66.961,3.339 66.665,3.451 66.444,3.675C66.224,3.898 66.113,4.231 66.113,4.673C66.113,4.919 66.143,5.127 66.203,5.299C66.263,5.471 66.346,5.611 66.453,5.721C66.559,5.83 66.685,5.909 66.829,5.958C66.974,6.007 67.128,6.032 67.292,6.032Z" style="fill:rgb(60,60,67);fill-rule:nonzero;"/>
        <path d="M73.552,4.796C73.552,5.101 73.508,5.377 73.421,5.622C73.334,5.868 73.21,6.078 73.049,6.252C72.888,6.427 72.693,6.561 72.464,6.653C72.234,6.746 71.978,6.793 71.694,6.793C71.411,6.793 71.154,6.746 70.925,6.653C70.696,6.561 70.499,6.427 70.336,6.252C70.172,6.078 70.047,5.868 69.959,5.622C69.872,5.377 69.828,5.101 69.828,4.796C69.828,4.49 69.873,4.215 69.963,3.969C70.053,3.724 70.18,3.514 70.344,3.339C70.508,3.165 70.704,3.031 70.933,2.938C71.162,2.845 71.416,2.799 71.694,2.799C71.973,2.799 72.226,2.845 72.455,2.938C72.685,3.031 72.88,3.165 73.041,3.339C73.201,3.514 73.327,3.724 73.417,3.969C73.507,4.215 73.552,4.49 73.552,4.796ZM71.694,3.339C71.323,3.339 71.031,3.467 70.819,3.724C70.606,3.98 70.499,4.337 70.499,4.796C70.499,5.26 70.605,5.618 70.815,5.872C71.025,6.126 71.318,6.252 71.694,6.252C72.071,6.252 72.363,6.124 72.57,5.868C72.777,5.611 72.881,5.254 72.881,4.796C72.881,4.337 72.776,3.98 72.566,3.724C72.356,3.467 72.065,3.339 71.694,3.339Z" style="fill:rgb(60,60,67);fill-rule:nonzero;"/>
    </g>
</svg>
